IKResults
version=1
nRows=6
nColumns=79
inDegrees=yes
endheader
time	/jointset/ground_pelvis/pelvis_tilt/value	/jointset/ground_pelvis/pelvis_tilt/speed	/jointset/ground_pelvis/pelvis_list/value	/jointset/ground_pelvis/pelvis_list/speed	/jointset/ground_pelvis/pelvis_rotation/value	/jointset/ground_pelvis/pelvis_rotation/speed	/jointset/ground_pelvis/pelvis_tx/value	/jointset/ground_pelvis/pelvis_tx/speed	/jointset/ground_pelvis/pelvis_ty/value	/jointset/ground_pelvis/pelvis_ty/speed	/jointset/ground_pelvis/pelvis_tz/value	/jointset/ground_pelvis/pelvis_tz/speed	/jointset/hip_r/hip_flexion_r/value	/jointset/hip_r/hip_flexion_r/speed	/jointset/hip_r/hip_adduction_r/value	/jointset/hip_r/hip_adduction_r/speed	/jointset/hip_r/hip_rotation_r/value	/jointset/hip_r/hip_rotation_r/speed	/jointset/walker_knee_r/knee_angle_r/value	/jointset/walker_knee_r/knee_angle_r/speed	/jointset/patellofemoral_r/knee_angle_r_beta/value	/jointset/patellofemoral_r/knee_angle_r_beta/speed	/jointset/ankle_r/ankle_angle_r/value	/jointset/ankle_r/ankle_angle_r/speed	/jointset/subtalar_r/subtalar_angle_r/value	/jointset/subtalar_r/subtalar_angle_r/speed	/jointset/mtp_r/mtp_angle_r/value	/jointset/mtp_r/mtp_angle_r/speed	/jointset/hip_l/hip_flexion_l/value	/jointset/hip_l/hip_flexion_l/speed	/jointset/hip_l/hip_adduction_l/value	/jointset/hip_l/hip_adduction_l/speed	/jointset/hip_l/hip_rotation_l/value	/jointset/hip_l/hip_rotation_l/speed	/jointset/walker_knee_l/knee_angle_l/value	/jointset/walker_knee_l/knee_angle_l/speed	/jointset/patellofemoral_l/knee_angle_l_beta/value	/jointset/patellofemoral_l/knee_angle_l_beta/speed	/jointset/ankle_l/ankle_angle_l/value	/jointset/ankle_l/ankle_angle_l/speed	/jointset/subtalar_l/subtalar_angle_l/value	/jointset/subtalar_l/subtalar_angle_l/speed	/jointset/mtp_l/mtp_angle_l/value	/jointset/mtp_l/mtp_angle_l/speed	/jointset/back/lumbar_extension/value	/jointset/back/lumbar_extension/speed	/jointset/back/lumbar_bending/value	/jointset/back/lumbar_bending/speed	/jointset/back/lumbar_rotation/value	/jointset/back/lumbar_rotation/speed	/jointset/acromial_r/arm_flex_r/value	/jointset/acromial_r/arm_flex_r/speed	/jointset/acromial_r/arm_add_r/value	/jointset/acromial_r/arm_add_r/speed	/jointset/acromial_r/arm_rot_r/value	/jointset/acromial_r/arm_rot_r/speed	/jointset/elbow_r/elbow_flex_r/value	/jointset/elbow_r/elbow_flex_r/speed	/jointset/radioulnar_r/pro_sup_r/value	/jointset/radioulnar_r/pro_sup_r/speed	/jointset/radius_hand_r/wrist_flex_r/value	/jointset/radius_hand_r/wrist_flex_r/speed	/jointset/radius_hand_r/wrist_dev_r/value	/jointset/radius_hand_r/wrist_dev_r/speed	/jointset/acromial_l/arm_flex_l/value	/jointset/acromial_l/arm_flex_l/speed	/jointset/acromial_l/arm_add_l/value	/jointset/acromial_l/arm_add_l/speed	/jointset/acromial_l/arm_rot_l/value	/jointset/acromial_l/arm_rot_l/speed	/jointset/elbow_l/elbow_flex_l/value	/jointset/elbow_l/elbow_flex_l/speed	/jointset/radioulnar_l/pro_sup_l/value	/jointset/radioulnar_l/pro_sup_l/speed	/jointset/radius_hand_l/wrist_flex_l/value	/jointset/radius_hand_l/wrist_flex_l/speed	/jointset/radius_hand_l/wrist_dev_l/value	/jointset/radius_hand_l/wrist_dev_l/speed
      0.00000000	 105479.99897629	      0.00000000	-123480.00721943	      0.00000000	  -8753.28553980	      0.00000000	      0.00000000	      0.00000000	      0.93000000	      0.00000000	      0.00000000	      0.00000000	      0.32759073	      0.00000000	     -0.00789277	      0.00000000	     -0.14355194	      0.00000000	      0.65450447	      0.00000000	      0.01142326	      0.00000000	      0.34995198	      0.00000000	      0.00000000	      0.00000000	      0.00000000	      0.00000000	      0.29325373	      0.00000000	     -0.00560618	      0.00000000	     -0.07054442	      0.00000000	      0.60714319	      0.00000000	      0.01059665	      0.00000000	      0.32787676	      0.00000000	      0.00000000	      0.00000000	      0.00000000	      0.00000000	      0.00000000	      0.00000000	      0.00000000	      0.00000000	      0.00000000	      0.00000000	      0.00000000	      0.00000000	      0.00000000	      0.00000000	      0.00000000	      0.00000000	      0.00000000	      0.00000000	      0.00000000	      0.00000000	      0.00000000	      0.00000000	      0.00000000	      0.00000000	      0.00000000	      0.00000000	      0.00000000	      0.00000000	      0.00000000	      0.00000000	      0.00000000	      0.00000000	      0.00000000	      0.00000000	      0.00000000	      0.00000000	      0.00000000	      0.00000000
      0.01000000	 105479.99573213	      0.00000000	-123480.01193092	      0.00000000	  -8753.27504794	      0.00000000	      0.00000000	      0.00000000	      0.93000000	      0.00000000	      0.00000000	      0.00000000	      0.32776181	      0.00000000	     -0.00552256	      0.00000000	     -0.14096158	      0.00000000	      0.65428670	      0.00000000	      0.01141946	      0.00000000	      0.34798283	      0.00000000	      0.00000000	      0.00000000	      0.00000000	      0.00000000	      0.29896506	      0.00000000	     -0.00619887	      0.00000000	     -0.07598756	      0.00000000	      0.60939240	      0.00000000	      0.01063590	      0.00000000	      0.32745447	      0.00000000	      0.00000000	      0.00000000	      0.00000000	      0.00000000	      0.00000000	      0.00000000	      0.00000000	      0.00000000	      0.00000000	      0.00000000	      0.00000000	      0.00000000	      0.00000000	      0.00000000	      0.00000000	      0.00000000	      0.00000000	      0.00000000	      0.00000000	      0.00000000	      0.00000000	      0.00000000	      0.00000000	      0.00000000	      0.00000000	      0.00000000	      0.00000000	      0.00000000	      0.00000000	      0.00000000	      0.00000000	      0.00000000	      0.00000000	      0.00000000	      0.00000000	      0.00000000	      0.00000000	      0.00000000
      0.02000000	 105479.99240534	      0.00000000	-123480.01823334	      0.00000000	  -8753.27124337	      0.00000000	      0.00000000	      0.00000000	      0.93000000	      0.00000000	      0.00000000	      0.00000000	      0.32855094	      0.00000000	     -0.00296298	      0.00000000	     -0.13999393	      0.00000000	      0.65397847	      0.00000000	      0.01141408	      0.00000000	      0.34588998	      0.00000000	      0.00000000	      0.00000000	      0.00000000	      0.00000000	      0.30362974	      0.00000000	     -0.00687309	      0.00000000	     -0.08085317	      0.00000000	      0.61222764	      0.00000000	      0.01068539	      0.00000000	      0.32568806	      0.00000000	      0.00000000	      0.00000000	      0.00000000	      0.00000000	      0.00000000	      0.00000000	      0.00000000	      0.00000000	      0.00000000	      0.00000000	      0.00000000	      0.00000000	      0.00000000	      0.00000000	      0.00000000	      0.00000000	      0.00000000	      0.00000000	      0.00000000	      0.00000000	      0.00000000	      0.00000000	      0.00000000	      0.00000000	      0.00000000	      0.00000000	      0.00000000	      0.00000000	      0.00000000	      0.00000000	      0.00000000	      0.00000000	      0.00000000	      0.00000000	      0.00000000	      0.00000000	      0.00000000	      0.00000000
      0.03000000	 105479.99036351	      0.00000000	-123480.02384282	      0.00000000	  -8753.26586230	      0.00000000	      0.00000000	      0.00000000	      0.93000000	      0.00000000	      0.00000000	      0.00000000	      0.32915249	      0.00000000	     -0.00095074	      0.00000000	     -0.14146686	      0.00000000	      0.65366179	      0.00000000	      0.01140855	      0.00000000	      0.34333620	      0.00000000	      0.00000000	      0.00000000	      0.00000000	      0.00000000	      0.30847334	      0.00000000	     -0.00901032	      0.00000000	     -0.08641376	      0.00000000	      0.61514849	      0.00000000	      0.01073637	      0.00000000	      0.32342581	      0.00000000	      0.00000000	      0.00000000	      0.00000000	      0.00000000	      0.00000000	      0.00000000	      0.00000000	      0.00000000	      0.00000000	      0.00000000	      0.00000000	      0.00000000	      0.00000000	      0.00000000	      0.00000000	      0.00000000	      0.00000000	      0.00000000	      0.00000000	      0.00000000	      0.00000000	      0.00000000	      0.00000000	      0.00000000	      0.00000000	      0.00000000	      0.00000000	      0.00000000	      0.00000000	      0.00000000	      0.00000000	      0.00000000	      0.00000000	      0.00000000	      0.00000000	      0.00000000	      0.00000000	      0.00000000
      0.04000000	 105479.98859180	      0.00000000	-123480.02923705	      0.00000000	  -8753.26113941	      0.00000000	      0.00000000	      0.00000000	      0.93000000	      0.00000000	      0.00000000	      0.00000000	      0.33014439	      0.00000000	      0.00162896	      0.00000000	     -0.14485373	      0.00000000	      0.65322217	      0.00000000	      0.01140088	      0.00000000	      0.34051031	      0.00000000	      0.00000000	      0.00000000	      0.00000000	      0.00000000	      0.31318489	      0.00000000	     -0.01026694	      0.00000000	     -0.09255558	      0.00000000	      0.61824817	      0.00000000	      0.01079047	      0.00000000	      0.32041075	      0.00000000	      0.00000000	      0.00000000	      0.00000000	      0.00000000	      0.00000000	      0.00000000	      0.00000000	      0.00000000	      0.00000000	      0.00000000	      0.00000000	      0.00000000	      0.00000000	      0.00000000	      0.00000000	      0.00000000	      0.00000000	      0.00000000	      0.00000000	      0.00000000	      0.00000000	      0.00000000	      0.00000000	      0.00000000	      0.00000000	      0.00000000	      0.00000000	      0.00000000	      0.00000000	      0.00000000	      0.00000000	      0.00000000	      0.00000000	      0.00000000	      0.00000000	      0.00000000	      0.00000000	      0.00000000
      0.05000000	 105479.98625348	      0.00000000	-123480.03490546	      0.00000000	  -8753.25703494	      0.00000000	      0.00000000	      0.00000000	      0.93000000	      0.00000000	      0.00000000	      0.00000000	      0.33101265	      0.00000000	      0.00412062	      0.00000000	     -0.14851275	      0.00000000	      0.65293328	      0.00000000	      0.01139584	      0.00000000	      0.33751037	      0.00000000	      0.00000000	      0.00000000	      0.00000000	      0.00000000	      0.31868315	      0.00000000	     -0.01154032	      0.00000000	     -0.09813815	      0.00000000	      0.62135847	      0.00000000	      0.01084475	      0.00000000	      0.31704348	      0.00000000	      0.00000000	      0.00000000	      0.00000000	      0.00000000	      0.00000000	      0.00000000	      0.00000000	      0.00000000	      0.00000000	      0.00000000	      0.00000000	      0.00000000	      0.00000000	      0.00000000	      0.00000000	      0.00000000	      0.00000000	      0.00000000	      0.00000000	      0.00000000	      0.00000000	      0.00000000	      0.00000000	      0.00000000	      0.00000000	      0.00000000	      0.00000000	      0.00000000	      0.00000000	      0.00000000	      0.00000000	      0.00000000	      0.00000000	      0.00000000	      0.00000000	      0.00000000	      0.00000000	      0.00000000
